<?xml version="1.0" encoding="UTF-8" standalone="no"?><!-- Generator: Gravit.io --><svg xmlns="http://www.w3.org/2000/svg" xmlns:xlink="http://www.w3.org/1999/xlink" style="isolation:isolate" viewBox="591 284 447.243 383.558" width="447.243pt" height="383.558pt"><defs><clipPath id="_clipPath_k0lPWyytTzndWEuWPXAusSGmZb95PusA"><rect x="591" y="284" width="447.243" height="383.558"/></clipPath></defs><g clip-path="url(#_clipPath_k0lPWyytTzndWEuWPXAusSGmZb95PusA)"><g><g><g><path d=" M 1011.361 444.387 C 1009.531 444.09 1007.679 443.953 1005.826 443.977 L 690.305 443.977 L 697.185 440.777 C 703.91 437.594 710.028 433.262 715.265 427.977 L 803.745 339.497 C 815.398 328.373 817.356 310.478 808.385 297.097 C 797.944 282.838 777.921 279.742 763.661 290.183 C 762.509 291.027 761.414 291.947 760.385 292.937 L 600.385 452.937 C 587.881 465.427 587.87 485.688 600.36 498.192 C 600.368 498.2 600.377 498.209 600.385 498.217 L 760.385 658.217 C 772.899 670.696 793.16 670.668 805.64 658.154 C 806.622 657.169 807.539 656.121 808.385 655.017 C 817.356 641.636 815.398 623.741 803.745 612.617 L 715.425 523.977 C 710.73 519.277 705.332 515.336 699.425 512.297 L 689.825 507.977 L 1004.065 507.977 C 1020.412 508.584 1034.754 497.165 1037.825 481.097 C 1040.654 463.652 1028.806 447.217 1011.361 444.387 Z " fill="rgb(34,111,84)"/></g></g></g></g></svg>