<?xml version="1.0" encoding="UTF-8" standalone="no"?><!-- Generator: Gravit.io --><svg xmlns="http://www.w3.org/2000/svg" xmlns:xlink="http://www.w3.org/1999/xlink" style="isolation:isolate" viewBox="459 229 40.499 34" width="40.499pt" height="34pt"><defs><clipPath id="_clipPath_0VjtaHwSaOrtf8ZQuUDf8Pt9Rtbiw5df"><rect x="459" y="229" width="40.499" height="34"/></clipPath></defs><g clip-path="url(#_clipPath_0VjtaHwSaOrtf8ZQuUDf8Pt9Rtbiw5df)"><g><g><path d=" M 498.622 247.496 L 491.873 254.246 C 491.311 254.808 490.547 255.125 489.751 255.125 C 488.955 255.125 488.191 254.809 487.63 254.246 L 480.88 247.496 C 479.709 246.325 479.709 244.425 480.88 243.254 C 482.051 242.082 483.951 242.082 485.122 243.254 L 486.954 245.086 C 486.486 239.447 481.758 235 476 235 C 469.936 235 465 239.935 465 246 C 465 252.064 469.936 257 476 257 C 477.657 257 479 258.343 479 260 C 479 261.657 477.657 263 476 263 C 466.627 263 459 255.374 459 246 C 459 236.626 466.627 229 476 229 C 484.936 229 492.266 235.933 492.936 244.698 L 494.378 243.254 C 495.55 242.082 497.45 242.082 498.62 243.254 C 499.792 244.424 499.792 246.324 498.622 247.496 Z " fill="rgb(34,111,84)"/></g></g></g></svg>