<?xml version="1.0" encoding="UTF-8" standalone="no"?><!-- Generator: Gravit.io --><svg xmlns="http://www.w3.org/2000/svg" xmlns:xlink="http://www.w3.org/1999/xlink" style="isolation:isolate" viewBox="0 0 512 512" width="512pt" height="512pt"><defs><clipPath id="_clipPath_fkkXRfQUpZQ8Ey9tg3Al5URRqNydURSr"><rect width="512" height="512"/></clipPath></defs><g clip-path="url(#_clipPath_fkkXRfQUpZQ8Ey9tg3Al5URRqNydURSr)"><path d=" M 474.332 85.332 C 474.332 123.625 443.293 154.668 405 154.668 C 366.707 154.668 335.668 123.625 335.668 85.332 C 335.668 47.043 366.707 16 405 16 C 443.293 16 474.332 47.043 474.332 85.332 L 474.332 85.332 Z " fill="rgb(34,111,84)"/><path d=" M 405 170.668 C 357.938 170.668 319.668 132.395 319.668 85.332 C 319.668 38.273 357.938 0 405 0 C 452.063 0 490.332 38.273 490.332 85.332 C 490.332 132.395 452.063 170.668 405 170.668 Z  M 405 32 C 375.582 32 351.668 55.938 351.668 85.332 C 351.668 114.73 375.582 138.668 405 138.668 C 434.418 138.668 458.332 114.73 458.332 85.332 C 458.332 55.938 434.418 32 405 32 Z " fill="rgb(34,111,84)"/><path d=" M 474.332 426.668 C 474.332 464.957 443.293 496 405 496 C 366.707 496 335.668 464.957 335.668 426.668 C 335.668 388.375 366.707 357.332 405 357.332 C 443.293 357.332 474.332 388.375 474.332 426.668 L 474.332 426.668 Z " fill="rgb(34,111,84)"/><path d=" M 405 512 C 357.938 512 319.668 473.727 319.668 426.668 C 319.668 379.605 357.938 341.332 405 341.332 C 452.063 341.332 490.332 379.605 490.332 426.668 C 490.332 473.727 452.063 512 405 512 Z  M 405 373.332 C 375.582 373.332 351.668 397.27 351.668 426.668 C 351.668 456.063 375.582 480 405 480 C 434.418 480 458.332 456.063 458.332 426.668 C 458.332 397.27 434.418 373.332 405 373.332 L 405 373.332 Z " fill="rgb(34,111,84)"/><path d=" M 175.668 256 C 175.668 294.293 144.625 325.332 106.332 325.332 C 68.043 325.332 37 294.293 37 256 C 37 217.707 68.043 186.668 106.332 186.668 C 144.625 186.668 175.668 217.707 175.668 256 Z " fill="rgb(34,111,84)"/><path d=" M 106.332 341.332 C 59.273 341.332 21 303.063 21 256 C 21 208.937 59.273 170.668 106.332 170.668 C 153.395 170.668 191.668 208.937 191.668 256 C 191.668 303.063 153.395 341.332 106.332 341.332 Z  M 106.332 202.668 C 76.914 202.668 53 226.602 53 256 C 53 285.398 76.914 309.332 106.332 309.332 C 135.754 309.332 159.668 285.398 159.668 256 C 159.668 226.602 135.754 202.668 106.332 202.668 Z " fill="rgb(34,111,84)"/><path d=" M 156.703 245.762 C 149.277 245.762 142.066 241.898 138.141 234.988 C 132.316 224.77 135.902 211.734 146.121 205.887 L 344.07 93.035 C 354.289 87.168 367.324 90.754 373.172 101.012 C 378.996 111.23 375.41 124.266 365.191 130.113 L 167.238 242.965 C 163.91 244.863 160.285 245.762 156.703 245.762 L 156.703 245.762 Z " fill="rgb(34,111,84)"/><path d=" M 354.633 421.762 C 351.047 421.762 347.422 420.863 344.094 418.965 L 146.141 306.113 C 135.922 300.289 132.34 287.254 138.164 277.012 C 143.965 266.773 157.02 263.168 167.262 269.035 L 365.215 381.887 C 375.434 387.711 379.016 400.746 373.191 410.988 C 369.246 417.898 362.035 421.762 354.633 421.762 L 354.633 421.762 Z " fill="rgb(34,111,84)"/></g></svg>